<svg xmlns="http://www.w3.org/2000/svg" viewBox="0 0 1024 1024">
  <defs>
    <radialGradient id="paper" cx="50%" cy="42%" r="64%">
      <stop offset="0%" stop-color="#fff8ec"/>
      <stop offset="58%" stop-color="#f8ead0"/>
      <stop offset="100%" stop-color="#efd7aa"/>
    </radialGradient>
    <linearGradient id="ink" x1="0%" x2="100%" y1="0%" y2="100%">
      <stop offset="0%" stop-color="#7b4b17"/>
      <stop offset="52%" stop-color="#2b1708"/>
      <stop offset="100%" stop-color="#a86b22"/>
    </linearGradient>
    <linearGradient id="gold" x1="0%" x2="100%" y1="0%" y2="100%">
      <stop offset="0%" stop-color="#f1c46f"/>
      <stop offset="50%" stop-color="#a96c1e"/>
      <stop offset="100%" stop-color="#5d340e"/>
    </linearGradient>
  </defs>
  <circle cx="512" cy="512" r="512" fill="url(#paper)"/>
  <path d="M318 164C418 94 596 79 738 164c82 49 139 122 164 207" fill="none" stroke="url(#ink)" stroke-width="16" stroke-linecap="round"/>
  <path d="M188 676C273 828 481 870 659 819c108-31 196-101 247-190" fill="none" stroke="url(#ink)" stroke-width="18" stroke-linecap="round"/>
  <text x="404" y="552" fill="url(#ink)" font-family="Georgia, 'Times New Roman', serif" font-size="470" text-anchor="middle">A</text>
  <text x="607" y="690" fill="url(#ink)" font-family="Georgia, 'Times New Roman', serif" font-size="430" text-anchor="middle">P</text>
  <path d="M653 224l22 48 48 22-48 22-22 48-22-48-48-22 48-22z" fill="url(#gold)"/>
</svg>
